<?xml version="1.0" standalone="no"?>
<!DOCTYPE svg PUBLIC "-//W3C//DTD SVG 20010904//EN"
 "http://www.w3.org/TR/2001/REC-SVG-20010904/DTD/svg10.dtd">
<svg version="1.0" xmlns="http://www.w3.org/2000/svg"
 width="448.000000pt" height="286.000000pt" viewBox="0 0 448.000000 286.000000"
 preserveAspectRatio="xMidYMid meet">

<g transform="translate(0.000000,286.000000) scale(0.100000,-0.100000)"
fill="#FF0000" stroke="none">
<path d="M3084 2512 c-161 -3 -145 6 -212 -110 -89 -153 -151 -259 -217 -372
-37 -63 -76 -131 -87 -150 -11 -19 -32 -55 -47 -80 -43 -69 -191 -321 -236
-399 -67 -119 -184 -320 -253 -436 -35 -60 -83 -141 -105 -180 -22 -38 -61
-103 -85 -144 -24 -41 -53 -90 -64 -109 l-19 -35 202 7 c120 4 208 11 216 18
7 5 43 58 79 117 37 58 81 129 99 156 18 28 74 118 125 200 51 83 112 179 135
215 23 36 59 94 81 129 21 35 50 76 64 92 l25 28 375 6 c213 4 380 11 387 17
6 5 29 39 51 76 22 37 94 157 159 267 211 352 315 528 334 561 10 18 30 51 44
74 15 23 24 45 20 48 -6 6 -807 9 -1071 4z m315 -337 c17 -20 34 -47 37 -61
11 -45 -4 -120 -40 -196 -65 -137 -170 -228 -263 -228 -40 0 -54 5 -74 26 -22
23 -24 34 -24 118 0 83 3 98 32 157 58 116 179 217 264 219 30 0 43 -7 68 -35z"/>
<path d="M3217 2040 c-63 -65 -84 -106 -96 -182 -11 -66 2 -75 65 -42 72 37
119 102 154 211 17 54 9 73 -32 73 -26 0 -43 -11 -91 -60z"/>
<path d="M1525 2495 c-8 -5 -40 -55 -72 -110 -33 -55 -106 -179 -163 -275
-105 -178 -211 -357 -276 -465 -20 -33 -65 -109 -100 -170 -35 -60 -69 -117
-74 -125 -6 -8 -22 -37 -38 -63 -15 -27 -53 -90 -84 -140 -32 -51 -58 -98 -58
-104 0 -10 69 -13 313 -13 171 0 318 -4 325 -8 28 -18 62 -77 62 -108 0 -24
-9 -40 -36 -63 l-36 -32 -363 5 c-266 3 -368 1 -379 -7 -8 -7 -49 -73 -91
-147 -43 -74 -84 -142 -91 -151 -8 -8 -14 -19 -14 -24 0 -4 240 -5 533 -2 292
4 568 7 612 7 l81 0 63 108 c35 59 74 123 87 142 12 19 47 78 76 130 30 52 75
129 100 170 103 173 224 377 241 410 10 19 29 51 42 70 12 19 55 91 95 160 40
69 84 143 97 165 14 22 41 69 62 105 108 187 193 330 280 472 22 37 41 70 41
73 0 11 -1222 1 -1235 -10z m225 -315 c16 -29 68 -53 104 -47 17 3 40 7 50 9
16 2 22 -6 33 -41 14 -50 57 -101 84 -101 47 0 60 -24 38 -73 -14 -31 3 -96
36 -135 31 -37 31 -37 0 -74 -36 -43 -51 -101 -37 -142 16 -43 7 -66 -25 -66
-34 0 -103 -69 -103 -103 0 -35 -15 -42 -85 -39 -55 3 -63 1 -93 -27 -18 -17
-38 -31 -44 -31 -7 0 -23 14 -38 31 -24 30 -30 32 -93 32 -72 0 -81 5 -91 53
-8 36 -40 67 -91 88 l-35 15 6 58 c6 59 -5 100 -41 148 -13 19 -12 24 13 60
23 34 27 51 28 112 2 80 7 93 36 93 27 0 85 59 94 96 9 41 30 55 60 42 32 -15
92 3 124 37 28 30 55 32 70 5z"/>
<path d="M1675 2050 c-125 -20 -209 -119 -226 -266 -12 -106 10 -171 83 -250
45 -48 124 -84 188 -84 167 0 301 177 269 353 -31 175 -155 272 -314 247z m97
-110 c34 0 96 -73 113 -134 15 -50 15 -59 0 -108 -9 -29 -24 -63 -34 -75 -82
-98 -227 -79 -285 39 -30 60 -32 96 -11 160 21 61 73 110 127 119 24 3 49 5
56 3 8 -2 23 -4 34 -4z"/>
<path d="M1665 1825 c-19 -18 -25 -35 -25 -68 0 -58 22 -83 77 -90 34 -4 45
-1 62 17 43 46 33 113 -23 150 -35 23 -63 20 -91 -9z"/>
<path d="M3119 1303 c-205 -3 -279 -7 -287 -16 -5 -6 -34 -55 -64 -107 -30
-52 -99 -169 -153 -260 -53 -91 -109 -185 -123 -210 -14 -25 -47 -81 -73 -125
-26 -44 -46 -81 -44 -83 2 -2 139 0 305 4 l302 7 39 61 c21 34 50 77 64 96
l27 35 -59 5 c-110 10 -143 47 -143 161 0 43 4 89 10 103 11 30 81 108 123
138 66 47 148 40 217 -19 22 -20 43 -34 45 -31 18 17 152 238 147 242 -3 3
-17 5 -31 4 -14 -2 -150 -4 -302 -5z"/>
</g>
</svg>
